HIERARCHY
ROOT Hips
{
  OFFSET 5.80788e-005 67.184 3.4734
  CHANNELS 6 Xposition Yposition Zposition Zrotation Xrotation Yrotation
  JOINT Chest
  {
    OFFSET 0 8.7983 -4.7612
    CHANNELS 3 Zrotation Xrotation Yrotation
    JOINT Chest2
    {
      OFFSET 0 8.0291 0.4195
      CHANNELS 3 Zrotation Xrotation Yrotation
      JOINT Chest3
      {
        OFFSET 0 9.9351 -2.2114
        CHANNELS 3 Zrotation Xrotation Yrotation
        JOINT Neck
        {
          OFFSET 0 22.3885 -0.4656
          CHANNELS 3 Zrotation Xrotation Yrotation
          JOINT Head
          {
            OFFSET -0.0001 12.643 3.4389
            CHANNELS 3 Zrotation Xrotation Yrotation
            End Site
            {
              OFFSET 0.0001 17.6655 0.5274
            }
          }
        }
        JOINT LeftCollar
        {
          OFFSET 2.2603 21.606 7.4023
          CHANNELS 3 Zrotation Xrotation Yrotation
          JOINT LeftShoulder
          {
            OFFSET 13.5163 -1.1332 -5.0146
            CHANNELS 3 Zrotation Xrotation Yrotation
            JOINT LeftElbow
            {
              OFFSET -0.0995 -28.05 -0.2431
              CHANNELS 3 Zrotation Xrotation Yrotation
              JOINT LeftWrist
              {
                OFFSET 0.0679 -23.3996 -0.1402
                CHANNELS 3 Zrotation Xrotation Yrotation
                JOINT LeftFinger1
                {
                  OFFSET 0.7932 -9.069 2.5189
                  CHANNELS 3 Zrotation Xrotation Yrotation
                  JOINT LeftFinger11
                  {
                    OFFSET -0.8272 -3.3923 0.5977
                    CHANNELS 3 Zrotation Xrotation Yrotation
                    JOINT LeftFinger12
                    {
                      OFFSET -0.5649 -2.3158 0.4082
                      CHANNELS 3 Zrotation Xrotation Yrotation
                      End Site
                      {
                        OFFSET -0.4919 -1.6479 0.2673
                      }
                    }
                  }
                }
                JOINT LeftFinger2
                {
                  OFFSET 0.9159 -9.2044 0.2193
                  CHANNELS 3 Zrotation Xrotation Yrotation
                  JOINT LeftFinger21
                  {
                    OFFSET 0.0117 -4.1944 -0.0248
                    CHANNELS 3 Zrotation Xrotation Yrotation
                    JOINT LeftFinger22
                    {
                      OFFSET 0.0071 -2.3249 -0.0142
                      CHANNELS 3 Zrotation Xrotation Yrotation
                      End Site
                      {
                        OFFSET -0.1475 -2.0882 0.0028
                      }
                    }
                  }
                }
                JOINT LeftFinger3
                {
                  OFFSET 0.6113 -8.7231 -2.0637
                  CHANNELS 3 Zrotation Xrotation Yrotation
                  JOINT LeftFinger31
                  {
                    OFFSET -0.1927 -3.8059 -0.2383
                    CHANNELS 3 Zrotation Xrotation Yrotation
                    JOINT LeftFinger32
                    {
                      OFFSET -0.1091 -2.1688 -0.1362
                      CHANNELS 3 Zrotation Xrotation Yrotation
                      End Site
                      {
                        OFFSET -0.2358 -1.9176 -0.0906
                      }
                    }
                  }
                }
                JOINT LeftFinger4
                {
                  OFFSET -0.6151 -8.0947 -3.5641
                  CHANNELS 3 Zrotation Xrotation Yrotation
                  JOINT LeftFinger41
                  {
                    OFFSET -0.4882 -2.341 -0.6462
                    CHANNELS 3 Zrotation Xrotation Yrotation
                    JOINT LeftFinger42
                    {
                      OFFSET -0.3575 -1.7167 -0.4742
                      CHANNELS 3 Zrotation Xrotation Yrotation
                      End Site
                      {
                        OFFSET -0.4187 -1.5237 -0.3496
                      }
                    }
                  }
                }
                JOINT LeftFinger0
                {
                  OFFSET -1.42 -1.8761 1.4223
                  CHANNELS 3 Zrotation Xrotation Yrotation
                  JOINT LeftFinger01
                  {
                    OFFSET -1.1471 -3.4929 2.6334
                    CHANNELS 3 Zrotation Xrotation Yrotation
                    JOINT LeftFinger02
                    {
                      OFFSET -0.823 -2.3 1.6571
                      CHANNELS 3 Zrotation Xrotation Yrotation
                      End Site
                      {
                        OFFSET -0.5822 -1.6914 1.1582
                      }
                    }
                  }
                }
              }
            }
          }
        }
        JOINT RightCollar
        {
          OFFSET -2.2603 21.606 7.4023
          CHANNELS 3 Zrotation Xrotation Yrotation
          JOINT RightShoulder
          {
            OFFSET -13.5187 -1.1334 -5.0155
            CHANNELS 3 Zrotation Xrotation Yrotation
            JOINT RightElbow
            {
              OFFSET 0.0994 -28.0499 -0.2431
              CHANNELS 3 Zrotation Xrotation Yrotation
              JOINT RightWrist
              {
                OFFSET -0.0679 -23.3996 -0.1402
                CHANNELS 3 Zrotation Xrotation Yrotation
                JOINT RightFinger1
                {
                  OFFSET -0.7932 -9.0691 2.5189
                  CHANNELS 3 Zrotation Xrotation Yrotation
                  JOINT RightFinger11
                  {
                    OFFSET 0.8272 -3.3923 0.5977
                    CHANNELS 3 Zrotation Xrotation Yrotation
                    JOINT RightFinger12
                    {
                      OFFSET 0.565 -2.3158 0.4082
                      CHANNELS 3 Zrotation Xrotation Yrotation
                      End Site
                      {
                        OFFSET 0.4919 -1.6479 0.2673
                      }
                    }
                  }
                }
                JOINT RightFinger2
                {
                  OFFSET -0.916 -9.2044 0.2193
                  CHANNELS 3 Zrotation Xrotation Yrotation
                  JOINT RightFinger21
                  {
                    OFFSET -0.0117 -4.1944 -0.0248
                    CHANNELS 3 Zrotation Xrotation Yrotation
                    JOINT RightFinger22
                    {
                      OFFSET -0.0071 -2.3249 -0.0142
                      CHANNELS 3 Zrotation Xrotation Yrotation
                      End Site
                      {
                        OFFSET 0.1475 -2.0882 0.0028
                      }
                    }
                  }
                }
                JOINT RightFinger3
                {
                  OFFSET -0.6113 -8.7231 -2.0637
                  CHANNELS 3 Zrotation Xrotation Yrotation
                  JOINT RightFinger31
                  {
                    OFFSET 0.1927 -3.8059 -0.2383
                    CHANNELS 3 Zrotation Xrotation Yrotation
                    JOINT RightFinger32
                    {
                      OFFSET 0.1091 -2.1688 -0.1362
                      CHANNELS 3 Zrotation Xrotation Yrotation
                      End Site
                      {
                        OFFSET 0.2358 -1.9176 -0.0906
                      }
                    }
                  }
                }
                JOINT RightFinger4
                {
                  OFFSET 0.6151 -8.0947 -3.564
                  CHANNELS 3 Zrotation Xrotation Yrotation
                  JOINT RightFinger41
                  {
                    OFFSET 0.4882 -2.341 -0.6462
                    CHANNELS 3 Zrotation Xrotation Yrotation
                    JOINT RightFinger42
                    {
                      OFFSET 0.3574 -1.7166 -0.4742
                      CHANNELS 3 Zrotation Xrotation Yrotation
                      End Site
                      {
                        OFFSET 0.4187 -1.5237 -0.3496
                      }
                    }
                  }
                }
                JOINT RightFinger0
                {
                  OFFSET 1.4199 -1.8761 1.4221
                  CHANNELS 3 Zrotation Xrotation Yrotation
                  JOINT RightFinger01
                  {
                    OFFSET 1.1472 -3.4929 2.6336
                    CHANNELS 3 Zrotation Xrotation Yrotation
                    JOINT RightFinger02
                    {
                      OFFSET 0.8229 -2.3 1.6571
                      CHANNELS 3 Zrotation Xrotation Yrotation
                      End Site
                      {
                        OFFSET 0.5822 -1.6914 1.1582
                      }
                    }
                  }
                }
              }
            }
          }
        }
      }
    }
  }
  JOINT RightHip
  {
    OFFSET -9.412 3.9771 -0.7758
    CHANNELS 3 Zrotation Xrotation Yrotation
    JOINT RightKnee
    {
      OFFSET -0.7531 -40.938 0
      CHANNELS 3 Zrotation Xrotation Yrotation
      JOINT RightAnkle
      {
        OFFSET 0 -40.1986 0
        CHANNELS 3 Zrotation Xrotation Yrotation
        JOINT RightToe
        {
          OFFSET 0 -4.4182 9.239
          CHANNELS 3 Zrotation Xrotation Yrotation
          End Site
          {
            OFFSET 0 0 6.1981
          }
        }
      }
    }
  }
  JOINT LeftHip
  {
    OFFSET 9.4119 3.9773 -0.7758
    CHANNELS 3 Zrotation Xrotation Yrotation
    JOINT LeftKnee
    {
      OFFSET 0.7532 -40.9383 0
      CHANNELS 3 Zrotation Xrotation Yrotation
      JOINT LeftAnkle
      {
        OFFSET 0 -40.1986 0
        CHANNELS 3 Zrotation Xrotation Yrotation
        JOINT LeftToe
        {
          OFFSET 0 -4.4182 9.239
          CHANNELS 3 Zrotation Xrotation Yrotation
          End Site
          {
            OFFSET 0 0 6.1981
          }
        }
      }
    }
  }
}
MOTION
Frames:	5
Frame Time:	0.0333333
5.80788e-005 67.184 3.4734 0 0 -0 0 0 -0 0 0 -0 0 0 -0 0 0 -0 0 0 -0 0 0 -12.5014 88.1196 14.2451 10.6914 -0.00160068 -0.00239207 0.000740045 -8.4365e-005 7.00714e-005 -9.52055e-007 9.93923e-017 -1.98785e-016 -1.59028e-015 9.93923e-017 -5.96354e-016 -1.59028e-015 -9.93923e-017 -5.96354e-016 -1.59028e-015 9.93923e-017 -1.98785e-016 -1.59028e-015 -0.0128176 0.00232552 8.52707e-005 9.93923e-017 5.96354e-016 -0 9.93923e-017 -1.98785e-016 -1.59028e-015 -0.0160551 0.00299681 0.000857156 -2.48481e-016 0 3.18055e-015 9.93923e-017 -1.98785e-016 -1.59028e-015 -0.0125865 0.0031206 0.00282719 0 1.98785e-016 -0 9.93923e-017 -1.98785e-016 -1.59028e-015 9.93923e-017 -5.96354e-016 -1.59028e-015 -9.93923e-017 -5.96354e-016 -1.59028e-015 -0.865644 0.16582 7.03859 -88.0329 10.2057 -10.5567 0.0015593 -0.00248883 -0.000788628 7.87605e-005 4.10553e-005 1.24965e-005 -3.97569e-016 -7.95139e-016 3.18055e-015 -1.98785e-016 -3.97569e-016 3.18055e-015 -1.98785e-016 0 3.18055e-015 -3.97569e-016 -7.95139e-016 3.18055e-015 0.0129473 0.00231697 -8.70038e-005 9.93923e-017 -7.95139e-016 1.59028e-015 -3.97569e-016 -7.95139e-016 3.18055e-015 0.0163314 0.00303369 -0.000872333 3.97569e-016 7.95139e-016 -3.18055e-015 -3.97569e-016 -7.95139e-016 3.18055e-015 0.0145763 0.00367772 -0.00326275 9.93923e-017 -3.97569e-016 -0 -3.97569e-016 -7.95139e-016 3.18055e-015 -1.98785e-016 -3.97569e-016 3.18055e-015 -1.98785e-016 0 3.18055e-015 3.42485 1.36937 -0.0640303 0.000136572 0.69354 0.00145564 -3.42573 -2.06297 -0.0607933 -3.19502e-024 0 -1.48106e-024 -3.42498 1.36123 0.0639712 -6.769e-005 0.712612 -0.0012277 3.42582 -2.07388 0.0612819 2.55305e-023 0 -2.31416e-026 
-0.928344 1.55842 10.305 -4.25496e-007 -85.0005 -4.27889e-007 0.575643 -3.04734 -0.371331 1.13388 -6.09824 -0.713452 1.13388 -6.09824 -0.713453 21.0005 -0.93519 0.356509 11.0405 -4.9108 0.954929 -26.3193 4.01301 -28.7629 37.2441 -7.13162 27.1276 0.0726232 -22.5543 -5.88751 -49.5221 9.07098 -7.13546 -9.54166e-015 0 3.18055e-015 -6.58625e-007 5.44735e-006 1.78847e-006 -6.36111e-015 0 -1.59028e-015 -9.54166e-015 0 3.18055e-015 -0.012821 0.00232468 8.69373e-005 5.29669e-031 6.36111e-015 -4.77083e-015 -9.54166e-015 0 3.18055e-015 -0.0160265 0.00298501 0.000867443 1.22406e-006 -1.22513e-006 1.96924e-006 -9.54166e-015 0 3.18055e-015 -0.0125572 0.00311477 0.00282756 1.59028e-015 -6.36111e-015 -7.95139e-015 -9.54166e-015 0 3.18055e-015 -6.58625e-007 5.44735e-006 1.78847e-006 -6.36111e-015 0 -1.59028e-015 18.2116 -14.1047 -0.676427 -30.0875 -5.44335 -20.5812 80.3065 -45.8118 60.0058 27.0193 5.81535 0.695245 -6.95746e-016 -1.59028e-015 1.98785e-015 -1.70176e-007 8.51388e-007 -8.34939e-007 1.27632e-007 7.88303e-007 6.26204e-007 -6.95746e-016 -1.59028e-015 1.98785e-015 0.0129171 0.00231048 -8.46346e-005 -7.07256e-006 9.12783e-007 3.18638e-006 -6.95746e-016 -1.59028e-015 1.98785e-015 0.0163332 0.00303396 -0.000876373 8.50581e-008 7.46278e-009 4.17474e-007 -6.95746e-016 -1.59028e-015 1.98785e-015 0.014544 0.00367039 -0.00325368 8.50542e-008 7.46435e-009 4.17477e-007 -6.95746e-016 -1.59028e-015 1.98785e-015 -1.70176e-007 8.51388e-007 -8.34939e-007 1.27632e-007 7.88303e-007 6.26204e-007 -5.05689 -11.7168 -2.55071 13.4669 32.2218 -25.5511 -4.4078 19.1428 7.93379 1.13049e-006 -4.74731e-006 -3.23043e-006 6.79197 -13.5275 5.94408 -15.1694 37.6429 27.0353 13.2977 18.052 -12.893 1.46891e-006 -2.24864e-007 4.58355e-007 
-0.928253 1.73481 10.2878 -1.19381e-005 -85.3345 -1.1281e-005 0.574665 -2.84992 -0.382745 1.13234 -5.70349 -0.738187 1.13234 -5.70349 -0.738187 20.8204 -0.617771 0.35432 10.8447 -4.68619 0.939456 -26.1818 3.58782 -28.9944 37.2441 -7.13166 27.1276 0.0725989 -22.5543 -5.88747 -49.5221 9.07098 -7.13546 1.59028e-015 -3.18055e-015 1.59028e-015 -3.49847e-006 1.51459e-006 1.05313e-006 1.59028e-015 9.54166e-015 1.59028e-015 1.59028e-015 -3.18055e-015 1.59028e-015 -0.0128786 0.00233358 8.55033e-005 3.53113e-031 3.18055e-015 -6.36111e-015 1.59028e-015 -3.18055e-015 1.59028e-015 -0.0160775 0.00299994 0.000856265 -1.11563e-006 -8.41147e-007 1.22193e-006 1.59028e-015 -3.18055e-015 1.59028e-015 -0.0125594 0.00311069 0.00281699 1.59028e-015 -9.54166e-015 -1.59028e-015 1.59028e-015 -3.18055e-015 1.59028e-015 -3.49847e-006 1.51459e-006 1.05313e-006 1.59028e-015 9.54166e-015 1.59028e-015 18.1212 -14.6087 -0.482089 -30.0875 -5.44337 -20.5812 80.3065 -45.8118 60.0058 27.0194 5.81538 0.695219 1.49089e-015 0 3.97569e-016 1.59028e-015 1.59028e-015 -0 1.68967e-015 0 -7.95139e-016 1.49089e-015 0 3.97569e-016 0.0129418 0.00231451 -8.52386e-005 -4.96962e-016 0 7.95139e-016 1.49089e-015 0 3.97569e-016 0.0163543 0.00304093 -0.000875283 -1.19271e-014 -1.59028e-015 7.95139e-016 1.49089e-015 0 3.97569e-016 0.0145628 0.00367925 -0.00326085 3.27995e-015 -1.59028e-015 -3.97569e-016 1.49089e-015 0 3.97569e-016 1.59028e-015 1.59028e-015 -0 1.68967e-015 0 -7.95139e-016 -4.48799 -11.338 -0.902086 13.4662 32.2199 -25.5307 -3.36585 19.2337 6.21513 -1.13378e-006 2.41964e-006 -1.79159e-007 6.26951 -13.1662 4.61661 -15.169 37.6421 27.0224 12.4337 18.317 -11.5896 -7.95139e-016 3.18055e-015 -2.38542e-015 
-0.928196 1.91105 10.2703 -1.15317e-005 -85.6686 -1.08924e-005 0.573764 -2.65165 -0.394157 1.13106 -5.30706 -0.76291 1.13106 -5.30707 -0.762912 20.6402 -0.30014 0.355153 10.649 -4.46148 0.924766 -26.0461 3.16208 -29.2247 37.2441 -7.13164 27.1276 0.0725915 -22.5543 -5.88752 -49.5221 9.07095 -7.13548 -6.73334e-006 -6.48083e-006 -5.19436e-006 -6.09795e-007 5.95374e-006 1.18951e-006 6.36111e-015 2.8625e-014 -6.36111e-015 -6.73334e-006 -6.48083e-006 -5.19436e-006 -0.0128505 0.0023384 8.52783e-005 -7.95139e-015 0 -3.18055e-015 -6.73334e-006 -6.48083e-006 -5.19436e-006 -0.0160482 0.00299709 0.000863321 -6.08373e-007 4.88608e-006 1.1894e-006 -6.73334e-006 -6.48083e-006 -5.19436e-006 -0.0126012 0.003135 0.00283038 -3.18055e-015 1.27222e-014 1.59028e-015 -6.73334e-006 -6.48083e-006 -5.19436e-006 -6.09795e-007 5.95374e-006 1.18951e-006 6.36111e-015 2.8625e-014 -6.36111e-015 18.0323 -15.1131 -0.288076 -30.0875 -5.44334 -20.5811 80.3065 -45.8119 60.0057 27.0194 5.81536 0.695234 6.69222e-006 -1.81022e-008 -5.17655e-007 6.26172e-015 1.59028e-015 -1.19271e-015 -4.93902e-007 3.35222e-006 -2.50801e-006 6.69222e-006 -1.81022e-008 -5.17655e-007 0.0129859 0.00232105 -8.72081e-005 -3.29176e-007 1.67614e-006 -1.67202e-006 6.69222e-006 -1.81022e-008 -5.17655e-007 0.0163062 0.00303066 -0.000871735 -4.11436e-007 8.91035e-007 -2.09004e-006 6.69222e-006 -1.81022e-008 -5.17655e-007 0.0145413 0.00366726 -0.00325712 -3.29134e-007 3.36588e-006 -1.67204e-006 6.69222e-006 -1.81022e-008 -5.17655e-007 6.26172e-015 1.59028e-015 -1.19271e-015 -4.93902e-007 3.35222e-006 -2.50801e-006 -3.92915 -10.9433 0.745877 13.4649 32.2185 -25.5098 -2.31706 19.2961 4.48753 6.95746e-016 6.36111e-015 1.09332e-015 5.7556 -12.7915 3.2919 -15.1682 37.6401 27.0084 11.5601 18.5642 -10.277 -2.39306e-006 2.45331e-007 -2.79136e-007 
-0.928169 2.08714 10.2525 -3.34147e-007 -86.0027 -2.64553e-007 0.572922 -2.45257 -0.40555 1.12999 -4.90903 -0.787592 1.12999 -4.90902 -0.787593 20.46 0.0173222 0.356205 10.4534 -4.23672 0.910843 -25.9121 2.73549 -29.4541 37.2441 -7.13163 27.1276 0.0725758 -22.5543 -5.88752 -49.5221 9.07097 -7.13544 1.59028e-015 6.36111e-015 -4.77083e-015 3.42396e-006 7.49003e-006 3.91569e-006 -6.36111e-015 0 -0 1.59028e-015 6.36111e-015 -4.77083e-015 -0.0128423 0.0023295 8.96506e-005 -4.77083e-015 -3.18055e-015 3.18055e-015 1.59028e-015 6.36111e-015 -4.77083e-015 -0.0160813 0.0030045 0.000859294 1.59028e-015 0 4.77083e-015 1.59028e-015 6.36111e-015 -4.77083e-015 -0.0126227 0.00312542 0.00283191 8.90716e-006 6.51608e-006 7.71208e-006 1.59028e-015 6.36111e-015 -4.77083e-015 3.42396e-006 7.49003e-006 3.91569e-006 -6.36111e-015 0 -0 17.9449 -15.6181 -0.0943062 -30.0875 -5.44336 -20.5811 80.3065 -45.8118 60.0057 27.0194 5.81536 0.69523 5.56597e-015 -1.59028e-015 2.38542e-015 -2.98177e-016 -4.77083e-015 1.98785e-015 -5.66291e-007 9.68073e-008 -2.92789e-006 5.56597e-015 -1.59028e-015 2.38542e-015 0.0129798 0.00232171 -8.7238e-005 -6.47005e-007 2.56171e-006 -3.34618e-006 5.56597e-015 -1.59028e-015 2.38542e-015 0.016337 0.00304027 -0.000876007 -1.61738e-007 -1.29524e-008 -8.36549e-007 5.56597e-015 -1.59028e-015 2.38542e-015 0.0146234 0.00368749 -0.00327228 -4.04324e-007 8.90447e-007 -2.09138e-006 5.56597e-015 -1.59028e-015 2.38542e-015 -2.98177e-016 -4.77083e-015 1.98785e-015 -5.66291e-007 9.68073e-008 -2.92789e-006 -3.38132 -10.5297 2.39223 13.4625 32.2142 -25.4872 -1.26297 19.3294 2.75256 -1.95904e-006 4.85994e-006 -8.31327e-008 5.25033 -12.4065 1.97021 -15.1669 37.6392 26.9943 10.6776 18.7934 -8.95577 1.95256e-006 1.69508e-005 -2.48469e-006 
